<!-- logo 2 -->
<?xml version="1.0" standalone="no"?>
<!DOCTYPE svg PUBLIC "-//W3C//DTD SVG 20010904//EN"
 "http://www.w3.org/TR/2001/REC-SVG-20010904/DTD/svg10.dtd">
<svg version="1.0" xmlns="http://www.w3.org/2000/svg"
 width="5129.000000pt" height="1174.000000pt" viewBox="0 0 5129.000000 1174.000000"
 preserveAspectRatio="xMidYMid meet">

<g transform="translate(0.000000,1174.000000) scale(0.100000,-0.100000)"
fill="#000000" stroke="none">
<path d="M8980 11589 c-41 -5 -433 -43 -870 -84 -750 -71 -902 -85 -1415 -135
-115 -11 -568 -54 -1005 -95 -437 -41 -887 -84 -1000 -95 -113 -11 -421 -40
-685 -65 -587 -55 -947 -90 -1210 -115 -110 -11 -371 -36 -580 -55 -209 -20
-497 -47 -640 -61 -143 -13 -352 -33 -465 -44 -577 -54 -755 -71 -757 -74 -7
-6 -44 -472 -45 -561 -1 -81 2 -109 19 -145 35 -79 26 -76 396 -127 185 -26
339 -45 342 -42 3 4 12 46 20 94 7 48 15 89 17 91 5 4 569 74 600 74 19 0 20
-4 14 -42 -4 -24 -20 -130 -36 -236 -16 -107 -30 -195 -32 -196 -115 -78 -318
-269 -419 -396 -313 -391 -504 -917 -564 -1554 -17 -185 -20 -589 -5 -787 42
-543 155 -1084 258 -1238 28 -41 69 -77 78 -69 2 3 -7 47 -20 99 -185 700
-155 2080 56 2588 91 218 163 281 319 281 234 -1 440 -167 628 -506 193 -345
387 -987 448 -1475 25 -204 25 -693 -1 -904 -78 -648 -278 -1097 -519 -1167
-61 -17 -164 -15 -224 5 -158 55 -342 241 -465 472 -44 83 -49 79 -11 -8 23
-51 28 -77 28 -147 0 -73 -4 -93 -28 -142 -56 -113 -177 -191 -389 -248 -144
-40 -242 -87 -311 -150 -108 -99 -136 -214 -77 -316 135 -237 587 -319 1320
-241 881 93 1453 65 2064 -103 556 -153 1193 -469 1901 -941 296 -198 616
-439 1140 -859 551 -443 671 -537 885 -690 646 -463 1138 -666 1665 -687 222
-8 563 18 805 63 47 8 200 44 340 79 140 35 305 73 366 84 389 70 818 46 1624
-89 1237 -208 2470 -259 3795 -159 865 65 1797 202 2725 400 355 76 508 111
885 204 209 52 472 110 585 130 1579 280 2753 634 3299 996 183 121 335 282
366 389 6 19 -5 12 -58 -36 -299 -274 -934 -566 -1716 -789 -1041 -296 -3106
-635 -4816 -789 -1293 -118 -2243 -135 -3030 -55 -1055 106 -1835 283 -2320
526 -229 114 -361 205 -507 349 -269 265 -347 442 -763 1739 -89 276 -172 499
-220 595 -34 66 -76 132 -82 126 -3 -2 12 -103 31 -224 67 -408 90 -776 75
-1170 -15 -389 -45 -619 -101 -792 -114 -349 -320 -596 -590 -708 -323 -134
-712 -44 -956 223 -261 285 -507 966 -611 1690 -42 289 -55 469 -54 775 0 564
79 1008 248 1393 160 362 356 537 603 537 48 0 115 -7 147 -15 89 -22 248
-105 350 -182 113 -85 306 -277 409 -408 44 -55 83 -104 88 -110 15 -17 -3 25
-45 105 -201 380 -503 661 -827 771 -81 27 -113 33 -221 37 -151 5 -238 -10
-350 -64 -327 -156 -543 -534 -653 -1139 -62 -343 -80 -633 -73 -1189 7 -509
29 -831 92 -1331 14 -104 27 -212 30 -240 l6 -50 -36 69 c-125 238 -378 487
-735 721 -268 176 -235 160 -2300 1110 -272 125 -785 361 -1140 525 -355 164
-805 371 -1000 460 -195 90 -363 170 -374 179 -46 40 -89 162 -109 312 l-13
94 -8 -95 c-4 -52 -13 -124 -20 -160 -12 -58 -13 -37 -9 210 15 810 -107 1642
-341 2325 -169 494 -398 805 -659 892 -38 13 -83 18 -167 18 -101 -1 -123 -4
-177 -27 -35 -14 -63 -23 -63 -19 0 12 81 142 141 226 236 332 548 547 902
624 192 42 467 44 692 6 359 -61 827 -238 1225 -462 163 -93 599 -355 990
-598 1641 -1017 2191 -1342 2720 -1609 285 -143 467 -220 589 -246 250 -54
612 -78 923 -61 179 10 426 35 436 45 1 2 -91 6 -205 9 -123 4 -265 14 -348
26 -626 91 -1274 339 -1863 714 -177 113 -195 124 -1352 842 -503 312 -996
618 -1095 680 -99 61 -310 193 -470 292 -159 99 -332 206 -383 238 -52 31 -90
61 -85 65 8 8 362 147 578 227 1248 462 2175 725 2764 783 348 34 704 -18 981
-143 147 -66 339 -203 435 -309 110 -122 121 -142 480 -843 76 -148 159 -310
185 -360 26 -49 103 -198 170 -330 67 -132 148 -289 180 -350 32 -60 108 -209
170 -330 102 -199 301 -587 304 -592 1 -1 76 -18 166 -38 1121 -245 2477 -763
4020 -1537 316 -158 641 -326 860 -445 41 -22 131 -71 200 -108 387 -210 938
-528 1385 -799 193 -116 181 -105 -190 173 -1411 1059 -2646 1815 -3520 2157
-118 46 -117 49 10 45 86 -2 693 20 925 35 840 51 2029 204 2820 363 130 26
99 25 -156 -4 -494 -57 -1136 -113 -1579 -140 -593 -35 -752 -39 -1385 -39
-641 0 -774 4 -1255 40 -839 62 -1620 211 -2057 393 l-76 32 -173 337 c-94
185 -195 382 -224 437 -29 55 -144 278 -255 495 -111 217 -226 440 -255 495
-145 277 -367 717 -363 721 17 16 880 186 1288 253 1248 205 2672 351 3905
400 227 9 226 9 453 -75 618 -228 1675 -772 3292 -1697 212 -121 437 -247 500
-280 63 -33 133 -72 155 -85 65 -41 145 -123 173 -177 48 -96 39 -228 -25
-346 -115 -214 -606 -434 -1443 -648 -177 -46 -170 -49 38 -21 675 94 1145
236 1401 425 74 54 156 146 192 216 27 54 33 78 37 149 5 102 -18 182 -78 273
-45 67 -55 63 115 47 545 -51 1231 -221 1900 -470 221 -82 462 -181 606 -247
l86 -40 45 -105 c43 -98 97 -259 148 -443 67 -245 221 -561 369 -759 31 -42
96 -118 144 -169 48 -52 106 -118 128 -148 95 -127 265 -442 383 -709 28 -64
56 -117 61 -120 15 -6 72 115 96 205 18 65 23 117 27 277 4 205 -3 293 -39
478 -29 148 -108 380 -173 510 -30 61 -51 110 -46 108 22 -8 227 -198 306
-284 374 -407 651 -862 855 -1404 32 -85 58 -152 59 -148 1 18 -84 316 -118
418 -248 727 -690 1342 -1334 1857 -862 688 -2170 1186 -3538 1346 l-195 23
-255 146 c-1601 912 -3307 1752 -4365 2146 -601 224 -1256 358 -2050 419 -313
24 -1099 24 -1425 0 -271 -20 -546 -49 -743 -78 -77 -11 -141 -18 -143 -16 -3
2 -8 81 -11 175 l-6 171 -36 5 c-20 3 -142 19 -271 36 -129 17 -265 35 -302
40 -77 12 -172 11 -278 -1z m218 -216 c-10 -2 -26 -2 -35 0 -10 3 -2 5 17 5
19 0 27 -2 18 -5z m-118 -14 c-30 -4 -152 -19 -270 -33 -370 -44 -1387 -165
-1560 -186 -91 -11 -280 -33 -420 -50 -140 -17 -329 -39 -420 -50 -91 -11
-277 -33 -415 -50 -349 -41 -775 -92 -1215 -145 -206 -24 -510 -60 -675 -80
-527 -63 -1240 -147 -1890 -225 -701 -84 -758 -90 -761 -87 -5 5 308 61 511
92 303 46 751 106 1420 190 390 48 659 80 1430 170 240 28 900 102 1240 140
584 64 695 76 915 100 129 13 424 45 655 70 1246 133 1438 153 1475 153 24 0
18 -3 -20 -9z m2525 -279 c677 -28 1271 -95 1817 -205 191 -39 519 -122 623
-159 l70 -25 -265 0 c-1063 -4 -2852 -201 -4648 -514 l-194 -34 -56 76 c-147
200 -353 348 -613 440 -201 72 -380 102 -649 110 l-205 6 205 33 c883 144
1800 240 2605 271 299 12 1037 12 1310 1z m-4400 -183 c110 -21 201 -40 203
-42 2 -1 -45 -15 -105 -29 -59 -14 -382 -91 -718 -171 l-610 -146 -810 -120
c-445 -66 -837 -124 -870 -129 -33 -6 -258 -40 -500 -75 -893 -133 -1208 -195
-1578 -315 l-147 -48 0 199 0 198 43 6 c23 3 218 26 432 50 215 25 447 52 516
60 117 14 156 26 617 179 457 153 499 166 619 181 70 8 292 35 493 60 914 111
1137 138 1305 160 164 22 212 23 545 21 l365 -2 200 -37z m-6481 -406 c130
-84 235 -156 232 -158 -8 -8 -204 83 -290 134 -43 27 -114 81 -157 122 -80 74
-103 109 -51 74 16 -10 135 -87 266 -172z m22053 -3843 c172 -268 255 -629
239 -1043 -8 -211 -23 -315 -25 -173 -5 398 -96 868 -230 1194 -21 52 -37 94
-35 94 2 0 25 -33 51 -72z"/>
<path d="M12125 10780 c-1061 -27 -2232 -158 -3083 -346 l-73 -16 48 -52 c27
-28 59 -68 72 -88 12 -21 24 -38 26 -38 2 0 77 15 167 34 830 175 1643 310
2378 396 467 54 840 81 1313 96 120 4 216 8 215 9 -9 8 -805 11 -1063 5z"/>
<path d="M14335 10384 c-22 -2 -107 -8 -190 -14 -293 -22 -758 -68 -1233 -124
-61 -7 -115 -16 -119 -19 -3 -4 32 -7 78 -7 46 -1 401 -11 789 -24 l705 -24
155 -45 c585 -171 1756 -660 3059 -1278 68 -33 126 -58 128 -56 8 8 -597 360
-892 517 -548 294 -1399 705 -2056 994 l-197 86 -93 -2 c-52 -1 -112 -3 -134
-4z"/>
<path d="M7210 10229 c-482 -39 -1147 -204 -1900 -471 -256 -91 -680 -257
-680 -267 1 -3 56 -37 123 -75 376 -214 1606 -946 2137 -1271 118 -72 293
-179 388 -236 l173 -104 -90 -12 c-50 -7 -100 -17 -111 -23 -82 -44 91 -209
355 -340 209 -103 372 -149 485 -135 66 7 169 34 176 46 2 4 -44 33 -103 63
-118 60 -626 350 -664 379 -23 17 -21 17 91 12 137 -7 427 -32 560 -48 l95
-12 73 -134 c42 -77 70 -140 67 -150 -6 -21 -53 -71 -85 -92 l-25 -16 90 -45
c249 -125 453 -198 554 -198 105 1 292 52 519 142 l103 41 -7 31 c-29 134
-234 731 -355 1035 -395 989 -798 1593 -1189 1787 -178 88 -448 120 -780 93z
m449 -138 c137 -40 238 -108 378 -254 144 -152 277 -354 399 -604 76 -156 176
-407 164 -411 -5 -2 -94 30 -197 71 -654 261 -1349 436 -1947 492 -189 18
-543 20 -681 5 -113 -12 -105 -12 -105 3 1 6 36 89 79 182 89 195 65 173 276
248 330 116 650 204 910 252 206 38 281 44 475 40 141 -3 189 -7 249 -24z"/>
<path d="M10233 10059 c-256 -13 -600 -63 -866 -126 l-108 -25 172 -336 c94
-186 202 -395 239 -467 37 -71 145 -283 241 -470 95 -187 228 -448 296 -580
68 -132 149 -291 181 -352 l56 -112 83 -36 c449 -193 1121 -341 1853 -410 384
-35 518 -40 1160 -39 1196 1 2219 63 3145 190 1029 141 1715 371 1973 660 61
68 109 161 118 228 l7 46 -56 -24 c-75 -34 -252 -92 -367 -121 -920 -232
-2096 -136 -3295 268 -516 174 -1006 398 -1845 841 -774 409 -1183 589 -1633
715 -440 125 -888 174 -1354 150z"/>
<path d="M2280 9576 c-297 -53 -568 -195 -787 -413 -84 -84 -163 -179 -127
-153 12 8 59 46 105 83 250 203 548 333 874 382 133 20 421 20 567 -1 320 -44
618 -137 948 -296 187 -89 198 -89 32 1 -350 189 -697 313 -1077 383 -141 26
-426 33 -535 14z"/>
<path d="M31276 9581 c-3 -5 1 -11 9 -15 8 -3 15 -1 15 4 0 13 -18 22 -24 11z"/>
<path d="M4030 9096 c0 -3 9 -10 20 -16 11 -6 20 -8 20 -6 0 3 -9 10 -20 16
-11 6 -20 8 -20 6z"/>
<path d="M1960 8765 c8 -11 36 -45 61 -75 155 -183 310 -498 403 -816 58 -200
115 -483 132 -657 4 -37 11 -70 17 -74 6 -4 8 75 4 228 -9 386 -59 611 -197
894 -80 162 -162 276 -281 390 -88 84 -167 147 -139 110z"/>
<path d="M1352 8458 c-57 -19 -128 -92 -148 -151 -57 -169 21 -569 207 -1054
33 -87 63 -166 66 -175 13 -43 15 -38 133 317 81 240 149 476 171 592 6 34 9
92 7 130 -3 59 -9 77 -47 135 -50 80 -131 156 -198 188 -55 26 -143 34 -191
18z"/>
<path d="M3324 8311 c-98 -61 -93 -339 17 -836 86 -392 288 -1089 369 -1278
140 -324 414 -608 752 -778 35 -17 198 -110 363 -207 372 -217 896 -524 1510
-884 259 -152 630 -369 825 -483 195 -114 365 -215 378 -223 31 -20 28 -5 -16
66 -183 303 -806 780 -1942 1487 -184 115 -357 227 -385 249 -262 213 -500
631 -614 1081 -27 109 -106 452 -125 545 -52 257 -35 402 51 452 30 18 35 18
105 2 251 -57 1185 -474 2463 -1099 143 -70 352 -172 465 -227 113 -55 208
-102 213 -105 4 -2 7 -2 7 0 0 5 -38 25 -1715 909 -605 319 -1179 622 -1275
673 -559 297 -1126 594 -1200 628 -105 50 -196 60 -246 28z"/>
<path d="M19126 8273 c33 -77 58 -169 62 -235 9 -145 -56 -281 -182 -377 -40
-31 -53 -47 -44 -52 7 -4 69 -28 138 -54 350 -133 910 -394 1286 -600 632
-346 1192 -729 1689 -1154 165 -142 518 -484 665 -646 l72 -80 -33 60 c-18 33
-73 123 -122 200 -490 772 -1175 1512 -1902 2055 -489 365 -1068 689 -1564
876 -76 29 -75 29 -65 7z"/>
<path d="M3076 8025 c10 -131 54 -418 94 -614 75 -372 194 -758 328 -1072 61
-142 123 -271 128 -266 2 2 -14 48 -35 103 -135 346 -319 1004 -455 1624 -69
318 -66 307 -60 225z"/>
<path d="M961 7586 c-16 -19 -38 -129 -53 -266 -17 -159 -17 -790 0 -889 23
-136 42 -149 130 -89 56 37 400 375 408 400 6 21 -71 196 -203 462 -99 199
-165 310 -216 364 -34 35 -49 39 -66 18z"/>
<path d="M2045 7432 c-49 -31 -94 -81 -160 -182 -68 -102 -225 -399 -225 -424
0 -10 66 -48 188 -109 298 -148 470 -208 507 -177 20 17 16 95 -16 285 -63
366 -165 625 -249 625 -8 0 -28 -8 -45 -18z"/>
<path d="M4592 7348 c-78 -78 272 -1276 451 -1546 103 -154 303 -317 517 -421
71 -34 69 -32 -85 82 -173 128 -319 287 -385 417 -41 81 -245 725 -324 1020
-30 114 -66 289 -66 322 0 51 9 52 131 19 88 -23 430 -135 694 -226 17 -6 18
-5 3 4 -31 21 -583 238 -718 283 -160 54 -201 63 -218 46z"/>
<path d="M18790 7285 c0 -2 18 -45 40 -96 110 -249 164 -476 164 -694 1 -203
-40 -353 -132 -487 -77 -111 -223 -223 -362 -277 -128 -50 -231 -65 -445 -65
-331 1 -719 63 -1305 209 -333 83 -528 138 -1405 395 -748 218 -1092 297
-1261 288 l-59 -3 150 -54 c645 -232 1446 -653 2000 -1051 92 -66 247 -152
525 -290 1109 -555 2130 -838 2847 -790 434 29 750 157 993 400 463 463 371
1016 -264 1587 -318 286 -761 576 -1271 831 -146 73 -215 104 -215 97z"/>
<path d="M17208 7233 c7 -3 16 -2 19 1 4 3 -2 6 -13 5 -11 0 -14 -3 -6 -6z"/>
<path d="M16978 7193 c7 -3 16 -2 19 1 4 3 -2 6 -13 5 -11 0 -14 -3 -6 -6z"/>
<path d="M10365 6577 c413 -158 847 -429 1305 -816 169 -143 595 -569 765
-766 489 -565 992 -962 1578 -1245 591 -285 1280 -454 2077 -509 85 -6 182
-13 215 -16 33 -2 267 -7 520 -11 602 -8 1390 17 2030 66 952 73 1993 252
2770 476 196 56 460 143 395 129 -1185 -246 -2052 -362 -3230 -430 -177 -10
-1024 -13 -1225 -5 -625 28 -1197 100 -1820 230 -1208 251 -2127 636 -2794
1170 -145 116 -200 165 -441 391 -754 705 -1325 1106 -1845 1294 -107 38 -285
81 -375 89 l-65 6 140 -53z"/>
<path d="M1726 6498 c3 -13 20 -122 40 -243 100 -619 219 -1121 295 -1239 25
-40 33 -46 63 -46 53 0 97 58 135 178 51 163 117 564 106 644 -16 115 -135
289 -319 466 -104 100 -299 262 -315 262 -5 0 -7 -10 -5 -22z"/>
<path d="M1445 6371 c-255 -218 -405 -431 -405 -574 1 -230 248 -772 445 -974
69 -71 103 -82 123 -38 34 74 38 351 12 725 -21 294 -84 917 -93 927 -2 1 -39
-28 -82 -66z"/>
<path d="M7770 6066 c0 -2 7 -7 16 -10 8 -3 12 -2 9 4 -6 10 -25 14 -25 6z"/>
<path d="M12247 5939 c-102 -15 -136 -46 -107 -98 19 -37 434 -382 685 -571
590 -443 1139 -725 1627 -834 237 -53 846 -129 1498 -186 317 -27 1088 -76
1095 -68 8 7 -616 375 -1015 598 -874 488 -1580 821 -2040 963 -184 57 -247
69 -565 111 -636 84 -1004 111 -1178 85z m2035 -433 c327 -116 907 -382 1338
-613 494 -266 945 -521 937 -530 -16 -15 -640 251 -1097 467 -410 193 -1447
720 -1505 764 -28 21 170 -32 327 -88z"/>
<path d="M9247 5799 c-98 -23 -190 -92 -226 -169 -24 -51 -26 -65 -25 -185 0
-198 48 -387 180 -721 62 -159 212 -488 238 -526 12 -17 20 -4 81 134 249 563
389 999 356 1113 -25 90 -175 242 -300 306 -104 54 -210 70 -304 48z"/>
<path d="M3455 5393 c-127 -15 -203 -28 -285 -48 -125 -32 -236 -70 -224 -77
5 -3 252 -106 549 -228 297 -122 729 -300 960 -395 231 -95 778 -320 1215
-500 1265 -520 1814 -747 1825 -753 7 -3 7 -2 0 5 -5 6 -152 89 -325 186 -359
200 -445 248 -1065 597 -696 391 -1396 789 -1660 943 -329 192 -426 231 -655
262 -96 13 -260 17 -335 8z"/>
<path d="M8664 4784 c-25 -38 -50 -156 -71 -332 -26 -224 -26 -823 0 -960 20
-108 39 -160 63 -169 37 -14 144 44 311 169 138 103 403 329 403 342 0 13
-148 279 -248 446 -199 331 -358 530 -423 530 -10 0 -26 -11 -35 -26z"/>
<path d="M28105 4673 c-163 -19 -331 -75 -497 -165 l-127 -69 -153 20 c-208
28 -472 51 -593 51 -55 0 -239 -14 -409 -31 l-310 -32 -293 -98 -293 -97 -252
-152 c-139 -84 -257 -155 -263 -158 -18 -11 37 53 228 266 106 117 202 232
215 255 44 80 12 169 -67 183 -80 15 -202 -90 -450 -391 -417 -505 -624 -826
-601 -931 18 -78 90 -110 165 -74 52 25 93 68 235 243 101 124 130 153 236
232 164 122 351 218 574 293 481 163 923 212 1545 171 94 -6 176 -14 183 -18
8 -5 -43 -51 -145 -132 -221 -175 -491 -460 -812 -857 -138 -171 -251 -302
-260 -302 -36 0 -747 -60 -881 -75 -432 -46 -522 -74 -549 -171 -20 -71 16
-125 89 -137 19 -3 231 19 470 48 440 54 699 80 721 73 6 -2 -111 -146 -262
-319 -151 -173 -332 -384 -403 -468 -255 -302 -498 -535 -651 -622 -54 -30
-68 -33 -137 -34 -67 0 -79 3 -102 24 -69 65 -55 202 39 391 53 105 125 213
253 378 131 168 134 173 130 219 -7 90 -108 75 -226 -33 -84 -76 -199 -218
-282 -347 -159 -248 -219 -522 -145 -666 39 -77 113 -134 210 -164 101 -31
131 -29 301 17 l159 43 178 126 c174 122 185 133 490 444 343 349 468 489 722
813 92 118 169 216 170 217 1 2 66 10 146 19 182 20 324 55 360 90 26 25 27
27 13 68 -24 68 -52 79 -227 86 l-147 5 191 235 c259 319 559 649 764 841
l170 159 80 0 c175 0 412 41 595 102 104 34 138 51 199 97 68 51 76 61 97 121
22 61 23 68 9 110 -20 60 -79 94 -188 109 -43 6 -81 10 -85 10 -4 -1 -61 -8
-127 -16z m180 -182 c-10 -17 -111 -50 -212 -70 -115 -23 -303 -38 -288 -23
28 27 210 81 320 95 64 8 186 7 180 -2z"/>
<path d="M41100 4674 c-167 -19 -333 -74 -500 -164 l-125 -68 -130 18 c-178
25 -483 50 -607 50 -57 0 -244 -14 -417 -31 l-314 -31 -294 -99 -295 -98 -184
-112 c-102 -61 -187 -109 -189 -107 -2 2 75 91 171 198 97 107 185 213 196
234 26 51 20 118 -14 152 -18 19 -39 26 -89 30 -60 6 -69 4 -121 -25 -173 -98
-845 -951 -932 -1182 -43 -116 -20 -166 93 -195 60 -15 66 -15 102 1 48 22
135 113 263 272 82 103 116 136 210 205 372 276 932 447 1551 477 174 8 568
-2 669 -17 l49 -7 -170 -135 c-229 -182 -487 -455 -802 -845 -129 -160 -239
-295 -245 -302 -7 -7 -136 -21 -341 -37 -699 -56 -1002 -97 -1061 -145 -42
-34 -57 -68 -50 -113 8 -48 28 -67 91 -88 61 -20 129 -16 520 33 198 25 410
51 470 56 61 6 132 14 159 17 46 5 49 4 35 -13 -8 -10 -131 -153 -274 -318
-144 -165 -320 -370 -392 -456 -170 -201 -406 -445 -508 -523 -116 -91 -182
-125 -251 -132 -55 -6 -61 -4 -84 21 -23 24 -25 35 -25 108 1 173 91 350 342
673 111 144 123 162 123 197 0 32 -25 52 -81 65 -69 17 -122 -5 -208 -84 -147
-136 -309 -366 -384 -544 -71 -170 -84 -328 -35 -442 42 -98 204 -193 361
-212 38 -5 81 3 207 38 l159 44 178 126 c175 123 184 132 498 453 346 354 473
496 718 811 87 111 163 204 167 207 5 3 80 14 167 25 202 25 297 50 336 88 28
28 28 30 13 66 -24 58 -79 77 -242 85 l-132 6 195 240 c192 236 587 681 656
740 20 17 90 81 156 143 l120 112 84 0 c172 0 396 39 587 102 98 32 140 52
195 92 83 60 79 55 105 133 19 54 20 67 9 103 -18 59 -84 96 -188 105 -42 3
-92 8 -111 10 -19 1 -91 -3 -160 -11z m165 -190 c-27 -20 -128 -50 -228 -68
-94 -17 -197 -25 -197 -17 0 11 143 60 220 75 103 21 118 23 175 24 47 1 49 0
30 -14z"/>
<path d="M10237 4626 c-93 -34 -200 -140 -345 -344 -109 -152 -236 -362 -225
-373 11 -11 288 -126 458 -189 269 -101 460 -151 520 -136 l28 7 -6 102 c-10
191 -105 548 -195 738 -46 95 -110 175 -159 195 -18 8 -34 14 -35 14 -2 -1
-20 -7 -41 -14z"/>
<path d="M23965 4501 c-361 -299 -925 -938 -1233 -1397 -88 -132 -135 -224
-176 -350 -69 -208 -144 -332 -290 -480 -150 -151 -331 -263 -581 -359 -196
-75 -357 -118 -741 -194 -822 -164 -1408 -209 -1734 -135 -86 20 -158 53 -228
107 -356 273 -825 506 -1417 703 -257 85 -379 120 -1010 289 -819 219 -1184
306 -1543 367 -163 28 -211 32 -377 32 -221 1 -272 -10 -326 -71 -31 -35 -31
-39 -27 -111 5 -65 12 -88 57 -177 87 -172 264 -374 529 -606 177 -156 449
-358 635 -473 104 -65 161 -130 187 -213 33 -107 27 -200 -26 -382 l-7 -24
289 7 c605 14 1529 63 2129 111 99 8 241 19 315 25 657 51 1453 158 2230 300
1065 195 2195 481 2675 677 241 98 523 261 695 400 81 66 217 200 209 206 -2
3 -172 -25 -377 -60 -205 -36 -375 -63 -377 -61 -4 3 173 576 355 1148 164
517 240 764 238 771 -2 5 -34 -18 -73 -50z m-8564 -1720 c243 -45 556 -140
986 -300 89 -33 170 -65 180 -71 21 -13 45 -19 -202 49 -355 97 -589 141 -786
148 -121 5 -140 3 -181 -15 -51 -22 -63 -45 -54 -97 16 -84 196 -262 469 -464
53 -40 97 -74 97 -77 0 -3 -44 18 -97 46 -400 212 -682 432 -763 594 -32 64
-39 129 -16 158 38 51 184 62 367 29z"/>
<path d="M22080 4438 c-823 -335 -2315 -572 -3930 -625 -247 -8 -243 -11 44
-38 1161 -109 2426 75 3571 520 207 80 429 178 395 174 -3 0 -39 -14 -80 -31z"/>
<path d="M31909 3735 c-48 -31 -148 -143 -254 -285 -57 -76 -139 -166 -243
-266 -144 -139 -161 -152 -202 -157 -25 -4 -178 -16 -340 -27 -513 -35 -631
-56 -659 -116 -14 -32 0 -66 40 -95 39 -27 48 -27 514 -9 165 7 308 11 319 9
14 -3 -28 -47 -169 -179 -221 -206 -316 -286 -633 -533 -443 -345 -657 -500
-761 -552 -79 -40 -282 -104 -304 -96 -17 6 -13 13 36 57 111 98 267 314 409
563 107 189 172 341 189 443 12 70 11 80 -6 118 -30 68 -130 140 -192 140 -46
0 -106 -46 -733 -560 -647 -530 -781 -629 -950 -700 -165 -70 -195 -79 -216
-63 -10 7 -35 13 -56 13 -21 0 -38 4 -38 8 0 26 87 140 379 492 263 318 350
455 330 524 -13 43 -50 77 -96 85 -51 10 -78 -1 -102 -39 -20 -34 -22 -33 -40
20 -7 21 -28 48 -54 67 -36 27 -56 34 -114 39 -231 22 -478 -91 -848 -387
-768 -612 -923 -719 -1140 -789 -118 -38 -145 -60 -145 -123 0 -54 22 -87 58
-87 15 0 70 11 122 25 78 21 120 41 235 110 77 47 210 141 295 209 85 68 156
123 156 123 1 -1 -5 -33 -13 -72 -13 -63 -13 -79 2 -156 16 -81 20 -90 64
-132 40 -39 55 -46 113 -57 38 -7 85 -9 110 -5 114 19 283 119 386 229 61 66
72 73 52 35 -22 -40 -28 -108 -15 -170 18 -84 56 -123 137 -139 61 -12 167 -6
199 11 10 5 29 3 47 -3 26 -10 49 -8 134 11 137 31 284 114 462 263 71 59 132
105 136 103 4 -2 12 -44 19 -92 14 -95 28 -122 103 -206 41 -45 48 -49 140
-71 79 -19 108 -21 150 -14 34 5 82 4 135 -3 59 -9 96 -9 135 -1 29 5 65 8 81
5 59 -12 197 28 331 95 180 89 357 218 656 478 140 122 256 221 258 219 2 -2
-22 -38 -53 -81 -144 -200 -217 -419 -185 -553 10 -42 21 -60 66 -99 49 -44
61 -49 126 -59 105 -16 179 -1 210 42 4 6 8 27 8 48 0 56 -50 97 -121 97 -16
0 -29 2 -29 5 0 3 11 33 25 66 59 140 302 477 716 995 l257 321 183 7 c211 8
306 19 381 45 98 33 108 101 23 145 -37 19 -55 21 -237 20 -109 -1 -198 0
-198 3 0 2 51 63 113 136 223 261 305 393 288 468 -15 67 -37 85 -121 102 -16
3 -38 -3 -61 -18z m-3944 -1316 c-30 -95 -88 -172 -259 -347 -130 -133 -385
-359 -503 -446 -79 -57 -201 -121 -211 -111 -2 2 7 27 19 57 73 171 675 754
872 843 68 31 91 32 82 4z m1469 -81 c-130 -258 -444 -768 -475 -768 -3 0 -15
31 -27 69 -30 92 -64 152 -112 195 l-40 36 103 84 c337 278 583 476 590 476 4
0 -14 -42 -39 -92z m-692 -705 c60 -138 70 -184 32 -153 -26 23 -63 104 -70
159 -9 68 7 66 38 -6z m528 -268 c0 -38 -18 -75 -36 -75 -14 0 -16 7 -11 40 8
65 47 93 47 35z m-1476 10 c7 -20 -12 -72 -29 -79 -20 -7 -28 10 -20 42 12 47
37 66 49 37z"/>
<path d="M9760 3560 c0 -10 24 -138 54 -282 177 -854 333 -1363 450 -1466 40
-35 61 -39 109 -18 111 46 189 245 272 697 40 218 39 242 -12 342 -91 181
-396 449 -790 696 -72 44 -83 48 -83 31z"/>
<path d="M44671 3485 c-33 -10 -84 -37 -130 -70 -120 -87 -158 -156 -139 -253
15 -72 38 -89 145 -111 122 -24 199 -14 313 44 74 38 108 64 132 104 44 70 39
175 -10 237 -19 23 -38 34 -76 42 -94 20 -178 22 -235 7z"/>
<path d="M9369 3406 c-148 -101 -296 -224 -399 -333 -149 -156 -198 -256 -184
-378 20 -186 207 -564 416 -842 142 -190 301 -326 359 -308 51 16 69 119 69
384 0 306 -29 640 -106 1236 -36 278 -40 305 -53 305 -4 0 -50 -29 -102 -64z"/>
<path d="M11276 3055 c12 -70 63 -242 100 -337 175 -447 477 -825 864 -1081
129 -86 385 -211 542 -266 113 -39 360 -103 443 -115 l40 -6 -30 15 c-16 8
-93 43 -170 77 -274 125 -627 341 -870 534 -136 108 -439 409 -527 524 -162
211 -265 385 -360 605 -29 68 -37 80 -32 50z"/>
<path d="M34513 2995 c-63 -27 -135 -110 -305 -352 -94 -134 -174 -240 -178
-236 -4 4 -14 44 -23 89 -15 80 -16 82 -82 145 -37 35 -74 67 -84 70 -9 4 -66
16 -128 28 -104 20 -117 20 -205 7 -172 -26 -358 -122 -520 -269 -109 -99
-172 -200 -197 -315 l-20 -87 26 -80 26 -80 91 -56 91 -57 140 -17 c114 -15
161 -16 255 -8 63 5 117 8 119 7 2 -2 -34 -45 -80 -96 -177 -195 -246 -301
-233 -362 12 -60 110 -135 157 -120 30 9 133 109 231 224 60 69 290 356 311
388 3 4 293 40 420 52 61 6 217 15 347 20 254 11 306 21 325 63 8 17 6 31 -8
58 -15 30 -30 41 -96 68 -75 31 -85 33 -248 38 -110 3 -235 -1 -355 -10 -101
-9 -187 -14 -189 -11 -3 2 72 82 165 177 323 327 484 546 468 635 -9 51 -38
79 -96 91 -63 14 -86 13 -125 -4z m-725 -539 c25 -25 27 -121 4 -193 -19 -61
-84 -187 -102 -198 -40 -25 -377 -59 -524 -53 -98 4 -120 7 -136 24 -19 18
-19 20 -1 59 26 58 132 151 256 224 246 146 441 199 503 137z"/>
<path d="M42545 2812 c-61 -29 -154 -103 -233 -186 -90 -95 -105 -125 -106
-202 l-1 -62 -255 -266 c-255 -267 -255 -267 -390 -350 -275 -170 -417 -243
-567 -291 -85 -28 -108 -32 -133 -24 l-29 11 19 49 c30 74 114 189 330 449
219 263 327 404 360 469 19 38 21 49 11 82 -18 58 -76 104 -150 117 -61 11
-62 11 -119 -23 -73 -44 -226 -194 -541 -530 -224 -238 -459 -465 -482 -465
-35 0 99 190 308 436 280 330 337 423 314 511 -14 50 -50 76 -134 93 -148 30
-205 11 -347 -114 -434 -384 -937 -787 -1215 -973 -77 -51 -104 -63 -185 -82
-152 -36 -180 -54 -180 -115 0 -42 11 -57 57 -77 57 -24 78 -24 190 5 68 18
132 45 240 103 166 89 468 297 556 382 31 30 57 50 57 43 0 -7 -11 -39 -24
-72 -59 -144 -55 -294 9 -362 27 -29 50 -40 116 -58 l83 -22 80 22 c63 17 99
35 166 83 47 33 102 76 124 96 l38 36 -6 -30 c-8 -40 18 -132 45 -161 55 -59
217 -100 330 -84 34 5 74 6 90 3 18 -3 84 14 201 52 l173 58 258 180 c231 161
294 211 595 478 349 309 456 385 274 194 -114 -119 -210 -240 -267 -335 -22
-36 -62 -92 -90 -125 -105 -123 -145 -238 -123 -348 10 -48 19 -65 50 -91 44
-38 156 -70 238 -69 275 4 359 23 555 131 144 79 431 284 574 411 82 73 82 71
3 -44 -40 -57 -64 -106 -84 -170 -27 -83 -28 -94 -17 -151 16 -89 56 -126 169
-155 47 -12 103 -22 125 -22 155 1 259 7 315 18 145 30 423 189 590 337 96 86
124 102 102 61 -26 -48 -31 -127 -12 -217 16 -81 22 -92 62 -133 29 -28 59
-48 84 -54 21 -5 79 -18 127 -29 l89 -20 101 26 c90 24 116 37 227 109 237
156 545 485 693 741 63 109 78 144 97 227 19 88 21 106 10 162 -17 90 -58 128
-160 150 -123 26 -188 23 -267 -15 -37 -18 -72 -32 -78 -30 -51 16 -164 29
-187 21 -47 -17 -111 -65 -482 -371 -406 -333 -627 -507 -797 -628 -119 -84
-137 -91 -375 -163 -38 -11 -65 -11 -82 0 -11 7 -11 14 3 42 24 47 119 171
245 319 319 374 435 528 475 629 19 50 21 66 13 104 -5 25 -18 53 -29 63 -40
36 -224 55 -301 31 -25 -8 -167 -120 -418 -331 -209 -175 -438 -364 -508 -419
-70 -55 -191 -154 -269 -219 -157 -131 -171 -138 -401 -199 -156 -41 -164 -34
-76 67 37 43 113 129 169 189 266 290 382 449 417 574 17 59 18 74 7 141 -11
67 -17 80 -56 121 -39 42 -51 48 -111 59 -37 7 -70 15 -75 17 -4 3 4 18 18 35
25 29 30 62 19 105 -8 29 -56 50 -134 57 -52 5 -73 3 -105 -12z m3259 -409
c-21 -97 -77 -211 -155 -317 -60 -80 -75 -78 -72 13 2 71 33 138 106 229 46
56 99 101 120 102 4 0 5 -12 1 -27z m-465 -467 c25 -36 47 -54 90 -73 l56 -25
-100 -95 c-172 -161 -356 -279 -371 -238 -4 8 4 57 16 108 18 74 35 114 88
202 36 61 90 139 121 174 l56 64 6 -34 c3 -19 20 -57 38 -83z"/>
<path d="M14167 2765 c10 -74 53 -239 82 -316 72 -187 171 -345 300 -481 108
-114 170 -163 366 -288 223 -142 294 -196 420 -324 107 -107 137 -151 183
-266 9 -23 11 -19 33 50 46 152 23 298 -60 372 -20 18 -117 85 -216 147 -388
247 -570 385 -755 577 -156 162 -253 302 -312 454 -45 116 -47 120 -41 75z"/>
<path d="M49322 2705 c-85 -61 -253 -196 -672 -540 -618 -507 -749 -604 -925
-677 -141 -59 -169 -68 -194 -61 -25 6 -26 11 -4 65 27 70 129 208 345 468
358 431 389 483 338 567 -28 47 -63 65 -149 79 -74 12 -77 12 -126 -14 -68
-37 -208 -172 -485 -467 -129 -137 -269 -283 -310 -325 -83 -83 -200 -186
-200 -175 0 21 164 238 310 410 261 307 331 419 309 499 -16 60 -58 82 -183
99 -94 13 -114 13 -156 1 -55 -16 -130 -70 -245 -176 -294 -271 -931 -777
-1174 -932 -57 -37 -93 -52 -161 -67 -138 -30 -164 -45 -176 -105 -9 -45 19
-71 95 -90 62 -16 68 -16 165 6 85 18 125 35 251 103 129 69 438 274 515 341
62 55 63 54 41 -5 -30 -82 -40 -174 -28 -247 15 -92 50 -120 183 -151 l101
-23 74 22 c72 21 94 33 225 126 33 24 61 38 61 31 0 -7 5 -35 12 -63 21 -88
86 -123 279 -153 38 -6 84 -6 117 -1 30 5 70 6 88 3 20 -3 77 4 133 17 83 19
118 33 219 92 66 39 157 101 201 139 45 38 84 69 87 69 3 0 8 -27 12 -59 6
-53 12 -66 67 -130 33 -39 63 -71 67 -71 4 0 72 -15 152 -34 125 -29 153 -33
195 -25 33 7 75 6 127 -1 150 -22 237 9 237 82 0 45 -22 74 -62 82 l-33 7 61
57 c124 117 278 330 421 582 96 168 158 312 179 414 17 80 17 86 0 130 -18 46
-73 100 -127 123 -14 6 -63 14 -110 17 l-84 6 -63 -45z m-172 -456 c-70 -137
-346 -589 -360 -589 -3 0 -16 26 -29 57 -28 62 -88 133 -115 133 -10 0 -16 4
-14 9 3 8 538 450 546 451 1 0 -11 -27 -28 -61z"/>
</g>
</svg>
